<?xml version="1.0" standalone="no"?>
<!DOCTYPE svg PUBLIC "-//W3C//DTD SVG 20010904//EN"
 "http://www.w3.org/TR/2001/REC-SVG-20010904/DTD/svg10.dtd">
<svg version="1.0" xmlns="http://www.w3.org/2000/svg"
 width="700.000000pt" height="700.000000pt" viewBox="0 0 700.000000 700.000000"
 preserveAspectRatio="xMidYMid meet">
<metadata>
Created by potrace 1.14, written by Peter Selinger 2001-2017
</metadata>
<g transform="translate(0.000000,700.000000) scale(0.100000,-0.100000)"
fill="#000000" stroke="none">
<path d="M5257 6760 c-313 -126 -584 -239 -603 -252 -47 -31 -79 -101 -104
-228 -12 -58 -23 -112 -25 -120 -2 -8 -19 -91 -39 -185 -30 -145 -100 -478
-111 -525 -2 -8 -4 -21 -4 -28 -1 -8 -8 -11 -18 -8 -10 2 -45 7 -78 11 -33 3
-78 8 -100 10 -344 41 -1005 40 -1355 0 -164 -19 -194 -23 -315 -41 -91 -14
-293 -59 -382 -84 -222 -64 -371 -139 -469 -235 -107 -105 -136 -200 -114
-370 4 -33 11 -87 14 -120 11 -115 16 -160 21 -200 2 -22 7 -71 10 -110 4 -38
8 -81 10 -95 2 -14 7 -56 10 -95 4 -38 8 -81 10 -95 2 -14 7 -54 10 -90 3 -36
8 -78 10 -95 2 -16 6 -59 10 -95 3 -36 8 -78 10 -95 2 -16 6 -55 9 -85 3 -30
8 -77 11 -105 7 -65 23 -225 30 -295 3 -30 12 -116 20 -190 17 -152 22 -197
30 -290 4 -36 8 -76 10 -90 2 -14 6 -56 10 -95 3 -38 8 -81 10 -95 2 -14 7
-56 10 -95 3 -38 8 -81 10 -95 2 -14 6 -56 10 -95 3 -38 8 -81 10 -95 2 -14 7
-52 10 -85 14 -147 28 -289 40 -395 2 -14 6 -56 10 -95 3 -38 8 -81 10 -95 2
-14 7 -61 11 -105 3 -44 8 -88 9 -97 2 -9 7 -48 10 -85 4 -37 8 -79 10 -93 2
-14 6 -59 10 -100 20 -239 106 -380 310 -507 242 -151 538 -257 845 -303 244
-36 602 -34 830 5 320 54 610 165 848 323 116 77 196 177 236 294 20 60 24 86
41 253 3 28 7 66 10 85 4 32 8 64 20 190 5 49 11 102 21 195 3 33 7 76 9 95 7
75 16 157 20 190 5 39 11 95 20 185 3 33 10 98 16 145 5 47 12 108 14 135 3
28 8 71 11 98 3 26 7 64 9 85 6 64 16 166 20 192 2 14 6 54 9 90 4 36 8 74 10
85 2 11 7 56 11 100 4 44 9 94 11 110 1 17 5 59 9 95 3 36 7 74 9 86 2 11 7
51 10 89 4 39 8 86 11 105 3 19 7 60 10 90 3 30 8 71 10 90 2 19 7 64 10 100
8 86 14 145 21 200 4 25 8 61 10 80 1 19 6 64 9 100 4 36 8 79 10 95 10 75 15
125 20 190 3 39 8 81 10 95 3 23 11 89 20 180 2 19 7 69 11 110 3 41 10 98 14
125 5 28 7 80 6 117 -8 206 -211 371 -589 479 l-79 23 7 30 c3 17 9 42 11 56
3 14 10 45 15 70 6 25 13 56 15 70 6 31 11 58 18 90 3 14 9 41 13 60 4 19 8
37 8 40 2 6 16 77 21 100 1 8 11 58 23 110 11 52 25 121 31 153 11 56 12 58
63 80 29 13 68 29 87 36 19 8 49 19 65 26 17 7 152 61 300 120 149 59 284 113
300 119 17 7 62 25 100 41 130 51 164 74 197 139 55 108 13 237 -95 291 -95
47 -89 48 -720 -205z m-1292 -1743 c17 -3 62 -8 100 -11 122 -10 200 -18 203
-21 3 -3 -67 -338 -72 -352 -1 -2 -100 -13 -161 -18 -320 -24 -799 -25 -1060
-1 -66 6 -171 18 -195 21 -14 2 -47 6 -75 10 -99 12 -355 59 -410 75 -121 37
-225 73 -239 83 -16 12 -10 16 51 40 84 33 179 61 258 78 33 7 65 14 70 15 52
13 304 51 390 60 39 3 84 8 100 10 17 1 82 6 145 10 63 3 117 8 119 10 6 6
741 -3 776 -9z m825 -137 c38 -11 92 -31 121 -44 52 -22 53 -23 30 -36 -24
-12 -258 -90 -272 -90 -7 0 -5 22 5 65 1 6 8 36 15 68 7 31 17 57 23 57 6 0
41 -9 78 -20z m-2703 -554 c31 -12 197 -53 288 -72 40 -8 261 -43 310 -49 28
-3 66 -8 85 -10 19 -3 69 -7 110 -10 41 -3 85 -8 98 -10 38 -6 367 -18 517
-18 144 0 490 11 522 17 10 2 61 7 113 11 52 4 104 9 115 11 11 2 47 6 80 10
33 3 66 7 73 9 7 3 34 7 60 11 86 11 339 64 423 89 45 14 87 25 92 25 5 0 6
-21 3 -47 -8 -62 -13 -112 -21 -198 -4 -38 -8 -81 -10 -95 -2 -14 -7 -52 -10
-85 -3 -33 -8 -76 -10 -95 -2 -19 -9 -82 -15 -140 -11 -111 -19 -182 -26 -240
-2 -19 -7 -64 -10 -100 -3 -36 -8 -72 -9 -81 -2 -8 -6 -53 -10 -100 -4 -46 -8
-91 -10 -99 -2 -8 -6 -44 -9 -80 -4 -36 -9 -81 -11 -100 -3 -19 -7 -66 -10
-103 -4 -37 -8 -78 -11 -90 -2 -12 -6 -53 -9 -92 -3 -38 -8 -81 -10 -95 -2
-14 -6 -54 -10 -90 -4 -36 -8 -76 -10 -90 -2 -14 -7 -59 -11 -100 -3 -41 -8
-86 -9 -100 -1 -14 -5 -52 -9 -85 -4 -33 -9 -78 -11 -100 -2 -22 -6 -60 -9
-85 -3 -25 -8 -72 -11 -105 -4 -33 -8 -73 -10 -90 -2 -16 -7 -57 -10 -90 -6
-66 -30 -288 -40 -375 -2 -19 -7 -69 -11 -110 -3 -41 -8 -83 -10 -93 -1 -10
-6 -53 -10 -95 -9 -109 -21 -132 -95 -181 -216 -141 -514 -236 -834 -266 -63
-6 -317 -6 -370 0 -22 2 -65 7 -95 10 -104 12 -257 45 -366 80 -118 38 -352
149 -400 190 -16 14 -32 25 -35 25 -9 0 -29 52 -34 86 -2 16 -6 63 -10 104 -3
41 -8 86 -10 100 -6 41 -20 169 -30 280 -3 36 -8 81 -11 100 -2 20 -6 60 -9
90 -3 30 -7 74 -10 97 -3 23 -7 68 -10 100 -3 32 -8 74 -10 93 -2 19 -7 69
-11 110 -3 41 -7 77 -9 80 -2 3 -6 43 -10 90 -4 47 -9 92 -10 102 -2 9 -6 53
-10 98 -4 45 -8 89 -10 98 -1 10 -6 49 -10 87 -3 39 -8 84 -10 100 -2 17 -7
62 -10 100 -3 39 -8 81 -10 95 -2 14 -7 57 -10 95 -3 39 -8 86 -10 105 -14
115 -19 166 -35 325 -6 61 -12 121 -15 135 -2 14 -7 57 -10 95 -3 39 -8 90
-11 115 -2 25 -7 68 -9 95 -3 28 -8 66 -10 85 -4 31 -12 109 -20 195 -2 28
-11 107 -20 185 -17 152 -17 150 -1 150 9 0 33 -6 53 -14z"/>
</g>
</svg>
